<svg width="22" height="19" viewBox="0 0 22 19" fill="none" xmlns="http://www.w3.org/2000/svg">
<path d="M12.875 0.5C10.4881 0.5 8.19887 1.44821 6.51104 3.13604C4.82321 4.82387 3.875 7.11305 3.875 9.5H0.875L4.765 13.39L4.835 13.53L8.875 9.5H5.875C5.875 5.63 9.005 2.5 12.875 2.5C16.745 2.5 19.875 5.63 19.875 9.5C19.875 13.37 16.745 16.5 12.875 16.5C10.945 16.5 9.195 15.71 7.935 14.44L6.515 15.86C7.34841 16.698 8.33949 17.3627 9.43106 17.8158C10.5226 18.269 11.6931 18.5015 12.875 18.5C15.2619 18.5 17.5511 17.5518 19.239 15.864C20.9268 14.1761 21.875 11.8869 21.875 9.5C21.875 7.11305 20.9268 4.82387 19.239 3.13604C17.5511 1.44821 15.2619 0.5 12.875 0.5ZM11.875 5.5V10.5L16.125 13.02L16.895 11.74L13.375 9.65V5.5H11.875Z" fill="#EC3237"/>
</svg>
